<svg xmlns="http://www.w3.org/2000/svg" width="25" height="47" viewBox="0 0 42 47" fill="none">
<path fill-rule="evenodd" clip-rule="evenodd" d="M1 43.1875C1 41.6342 2.2792 40.375 3.85714 40.375H38.1429C39.7209 40.375 41 41.6342 41 43.1875C41 44.7408 39.7209 46 38.1429 46H3.85714C2.2792 46 1 44.7408 1 43.1875ZM10.4083 21.5113C11.5241 20.4129 13.3331 20.4129 14.4489 21.5113L18.1429 25.1476V3.8125C18.1429 2.25921 19.422 1 21 1C22.578 1 23.8571 2.25918 23.8571 3.8125V25.1476L27.5511 21.5113C28.6669 20.4129 30.476 20.4129 31.5917 21.5113C32.7074 22.6096 32.7074 24.3904 31.5917 25.4887L23.0203 33.9262C22.4846 34.4536 21.7577 34.75 21 34.75C20.2422 34.75 19.5155 34.4536 18.9797 33.9262L10.4083 25.4887C9.29249 24.3904 9.29249 22.6096 10.4083 21.5113Z" fill="rgba(255, 255, 255, 0.6)" fill-opacity="0.9" stroke="#313030" stroke-width="2"/>
</svg>