<svg xmlns="http://www.w3.org/2000/svg" width="32" height="31" viewBox="0 0 32 31" fill="rgb(33, 33, 33)">
<path d="M29 28.125L20.3333 19.7917ZM23.2222 12.8472C23.2222 18.2167 18.6953 22.5694 13.1111 22.5694C7.5269 22.5694 3 18.2167 3 12.8472C3 7.47779 7.5269 3.125 13.1111 3.125C18.6953 3.125 23.2222 7.47779 23.2222 12.8472Z" fill="#313030"/>
<path d="M29 28.125L20.3333 19.7917M23.2222 12.8472C23.2222 18.2167 18.6953 22.5694 13.1111 22.5694C7.5269 22.5694 3 18.2167 3 12.8472C3 7.47779 7.5269 3.125 13.1111 3.125C18.6953 3.125 23.2222 7.47779 23.2222 12.8472Z" stroke="#F3F3F3" stroke-width="4.54" stroke-linecap="round" stroke-linejoin="round"/>
</svg>